# Blender v2.74 (sub 0) OBJ File: 'RedstonePumpGenerator.blend'
# www.blender.org
mtllib RedstonePumpGenerator.mtl
o Cube_Cube.004
v 0.200000 0.400000 0.800000
v 0.200000 0.720000 0.800000
v 0.200000 0.400000 0.200000
v 0.200000 0.720000 0.200000
v 0.800000 0.400000 0.800000
v 0.800000 0.720000 0.800000
v 0.800000 0.400000 0.200000
v 0.800000 0.720000 0.200000
vn -1.000000 0.000000 0.000000
vn 0.000000 0.000000 -1.000000
vn 1.000000 0.000000 0.000000
vn 0.000000 0.000000 1.000000
vn 0.000000 -1.000000 0.000000
vn 0.000000 1.000000 0.000000
usemtl Redstone
s off
f 2//1 4//1 3//1 1//1
f 4//2 8//2 7//2 3//2
f 8//3 6//3 5//3 7//3
f 6//4 2//4 1//4 5//4
f 1//5 3//5 7//5 5//5
f 6//6 8//6 4//6 2//6
o GeneratorBase_Cube.003
v 0.000000 0.000000 1.000000
v 0.000000 0.400000 1.000000
v 0.000000 0.000000 0.000000
v 0.000000 0.400000 0.000000
v 1.000000 0.000000 1.000000
v 1.000000 0.400000 1.000000
v 1.000000 0.000000 0.000000
v 1.000000 0.400000 0.000000
vn -1.000000 0.000000 0.000000
vn 0.000000 0.000000 -1.000000
vn 1.000000 0.000000 0.000000
vn 0.000000 0.000000 1.000000
vn 0.000000 -1.000000 0.000000
vn 0.000000 1.000000 0.000000
usemtl Dark-Metal
s off
f 10//7 12//7 11//7 9//7
f 12//8 16//8 15//8 11//8
f 16//9 14//9 13//9 15//9
f 14//10 10//10 9//10 13//10
f 9//11 11//11 15//11 13//11
f 14//12 16//12 12//12 10//12
o ConnectorPlate_Cube.001
v 0.000000 0.900000 1.000000
v 0.000000 1.000000 1.000000
v 0.000000 0.900000 0.000000
v 0.000000 1.000000 0.000000
v 1.000000 0.900000 1.000000
v 1.000000 1.000000 1.000000
v 1.000000 0.900000 0.000000
v 1.000000 1.000000 0.000000
vt 0.500163 0.151045
vt 0.999836 0.151045
vt 0.999836 0.201012
vt 0.500163 0.201012
vt 0.500163 0.100751
vt 0.999836 0.100751
vt 0.999836 0.150718
vt 0.500163 0.150718
vt 0.999836 0.050131
vt 0.500163 0.050131
vt 0.500163 0.000163
vt 0.999836 0.000163
vt 0.999836 0.100425
vt 0.500163 0.100425
vt 0.500163 0.050457
vt 0.999836 0.050457
vt 0.000163 0.999837
vt 0.000163 0.500163
vt 0.499837 0.500163
vt 0.499837 0.999837
vt 0.499837 0.000163
vt 0.499837 0.499837
vt 0.000163 0.499837
vt 0.000163 0.000163
vn -1.000000 0.000000 0.000000
vn 0.000000 0.000000 -1.000000
vn 1.000000 0.000000 0.000000
vn 0.000000 0.000000 1.000000
vn 0.000000 -1.000000 0.000000
vn 0.000000 1.000000 0.000000
usemtl FloorPlate
s off
f 18/1/13 20/2/13 19/3/13 17/4/13
f 20/5/14 24/6/14 23/7/14 19/8/14
f 24/9/15 22/10/15 21/11/15 23/12/15
f 22/13/16 18/14/16 17/15/16 21/16/16
f 17/17/17 19/18/17 23/19/17 21/20/17
f 22/21/18 24/22/18 20/23/18 18/24/18
o Generator_Layer1_Cube.002
v 0.125000 0.720000 0.875000
v 0.125000 0.780000 0.875000
v 0.125000 0.720000 0.125000
v 0.125000 0.780000 0.125000
v 0.875000 0.720000 0.875000
v 0.875000 0.780000 0.875000
v 0.875000 0.720000 0.125000
v 0.875000 0.780000 0.125000
vn -1.000000 0.000000 0.000000
vn 0.000000 0.000000 -1.000000
vn 1.000000 0.000000 0.000000
vn 0.000000 0.000000 1.000000
vn 0.000000 -1.000000 0.000000
vn 0.000000 1.000000 0.000000
usemtl Light-Metal
s off
f 26//19 28//19 27//19 25//19
f 28//20 32//20 31//20 27//20
f 32//21 30//21 29//21 31//21
f 30//22 26//22 25//22 29//22
f 25//23 27//23 31//23 29//23
f 30//24 32//24 28//24 26//24
o Generator_Layer2_Cube.008
v 0.100000 0.780000 0.900000
v 0.100000 0.840000 0.900000
v 0.100000 0.780000 0.100000
v 0.100000 0.840000 0.100000
v 0.900000 0.780000 0.900000
v 0.900000 0.840000 0.900000
v 0.900000 0.780000 0.100000
v 0.900000 0.840000 0.100000
vn -1.000000 0.000000 0.000000
vn 0.000000 0.000000 -1.000000
vn 1.000000 0.000000 0.000000
vn 0.000000 0.000000 1.000000
vn 0.000000 -1.000000 0.000000
vn 0.000000 1.000000 0.000000
usemtl Gold
s off
f 34//25 36//25 35//25 33//25
f 36//26 40//26 39//26 35//26
f 40//27 38//27 37//27 39//27
f 38//28 34//28 33//28 37//28
f 33//29 35//29 39//29 37//29
f 38//30 40//30 36//30 34//30
o Generator_Layer3_Cube.010
v 0.125000 0.840000 0.875000
v 0.125000 0.899999 0.875000
v 0.125000 0.840000 0.125000
v 0.125000 0.899999 0.125000
v 0.875000 0.840000 0.875000
v 0.875000 0.899999 0.875000
v 0.875000 0.840000 0.125000
v 0.875000 0.899999 0.125000
vn -1.000000 0.000000 0.000000
vn 0.000000 0.000000 -1.000000
vn 1.000000 0.000000 0.000000
vn 0.000000 0.000000 1.000000
vn 0.000000 -1.000000 0.000000
vn 0.000000 1.000000 0.000000
usemtl Light-Metal
s off
f 42//31 44//31 43//31 41//31
f 44//32 48//32 47//32 43//32
f 48//33 46//33 45//33 47//33
f 46//34 42//34 41//34 45//34
f 41//35 43//35 47//35 45//35
f 46//36 48//36 44//36 42//36
