# Blender v2.78 (sub 0) OBJ File: 'caster.blend'
# www.blender.org
mtllib caster.mtl
o Glass_Front_Plane
v 0.831150 0.250000 0.118750
v 0.168650 0.250000 0.118750
v 0.831150 0.587500 0.118750
v 0.168650 0.587500 0.118750
vt 0.0001 0.0001
vt 0.9999 0.0001
vt 0.9999 1.0000
vt 0.0001 1.0000
vn -0.0000 0.0000 -1.0000
usemtl Glass
s off
f 1/1/1 2/2/1 4/3/1 3/4/1
o Floorplate_FloorPlate_Cube.005
v 0.000000 0.100000 0.000000
v 0.000000 0.000000 0.000000
v 0.000000 -0.000000 1.000000
v 1.000000 0.100000 0.000000
v 1.000000 0.000000 0.000000
v 1.000000 0.100000 1.000000
v 1.000000 -0.000000 1.000000
v 0.000000 0.100000 1.000000
vt 0.9998 0.1510
vt 0.9998 0.2010
vt 0.5002 0.2010
vt 0.9998 0.1008
vt 0.9998 0.1507
vt 0.5002 0.1507
vt 0.5002 0.0501
vt 0.5002 0.0002
vt 0.9998 0.0002
vt 0.5002 0.1004
vt 0.5002 0.0505
vt 0.9998 0.0505
vt 0.0002 0.5002
vt 0.4998 0.5002
vt 0.4998 0.9998
vt 0.4998 0.4998
vt 0.0002 0.4998
vt 0.0002 0.0002
vt 0.5002 0.1510
vt 0.5002 0.1008
vt 0.9998 0.0501
vt 0.9998 0.1004
vt 0.0002 0.9998
vt 0.4998 0.0002
vn -1.0000 0.0000 0.0000
vn 0.0000 0.0000 -1.0000
vn 1.0000 0.0000 0.0000
vn 0.0000 0.0000 1.0000
vn 0.0000 -1.0000 -0.0000
vn 0.0000 1.0000 0.0000
usemtl FloorPlate
s 1
f 5/5/2 6/6/2 7/7/2
f 8/8/3 9/9/3 6/10/3
f 10/11/4 11/12/4 9/13/4
f 12/14/5 7/15/5 11/16/5
f 6/17/6 9/18/6 11/19/6
f 8/20/7 5/21/7 12/22/7
f 12/23/2 5/5/2 7/7/2
f 5/24/3 8/8/3 6/10/3
f 8/25/4 10/11/4 9/13/4
f 10/26/5 12/14/5 11/16/5
f 7/27/6 6/17/6 11/19/6
f 10/28/7 8/20/7 12/22/7
o Caster_Cube.001
v 0.118750 0.100000 0.881250
v 0.118750 0.100000 0.118750
v 0.881250 0.100000 0.881250
v 0.881250 0.100000 0.118750
v 0.550000 0.100000 0.118750
v 0.550000 0.100000 0.881250
v 0.450000 0.100000 0.118750
v 0.450000 0.100000 0.881250
v 0.118750 0.250000 0.881250
v 0.118750 0.250000 0.118750
v 0.881250 0.250000 0.118750
v 0.881250 0.250000 0.881250
v 0.550000 0.250000 0.881250
v 0.550000 0.250000 0.118750
v 0.450000 0.250000 0.118750
v 0.450000 0.250000 0.881250
v 0.881250 0.587500 0.881250
v 0.118750 0.250003 0.881250
v 0.831250 0.587500 0.831250
v 0.881250 0.587500 0.831250
v 0.760429 0.110000 0.239571
v 0.760429 0.110000 0.760429
v 0.168750 0.250003 0.881250
v 0.239571 0.110000 0.239571
v 0.168750 0.250003 0.831250
v 0.168750 0.250003 0.881250
v 0.118750 0.250003 0.118750
v 0.168750 0.250003 0.118750
v 0.118750 0.100000 0.450000
v 0.881250 0.100000 0.450000
v 0.550000 0.100000 0.450000
v 0.450000 0.100000 0.450000
v 0.881250 0.250000 0.450000
v 0.118750 0.250000 0.450000
v 0.239571 0.110000 0.760429
v 0.118750 0.250003 0.831250
v 0.118750 0.100000 0.550000
v 0.550000 0.100000 0.550000
v 0.450000 0.100000 0.550000
v 0.881250 0.250000 0.550000
v 0.881250 0.250003 0.831250
v 0.881250 0.100000 0.550000
v 0.118750 0.250000 0.550000
v 0.831250 0.250003 0.831250
v 0.168750 0.250003 0.168750
v 0.118750 0.250003 0.168750
v 0.118750 0.250003 0.881250
v 0.118750 0.250003 0.831250
v 0.168750 0.100000 0.118750
v 0.831250 0.100000 0.881250
v 0.831250 0.100000 0.118750
v 0.831250 0.250000 0.881250
v 0.831250 0.250000 0.118750
v 0.881250 0.250003 0.881250
v 0.831250 0.250003 0.881250
v 0.831250 0.100000 0.450000
v 0.831250 0.100000 0.550000
v 0.881250 0.100000 0.168750
v 0.118750 0.250000 0.168750
v 0.168750 0.250003 0.831250
v 0.118750 0.100000 0.168750
v 0.550000 0.100000 0.168750
v 0.450000 0.100000 0.168750
v 0.881250 0.250000 0.168750
v 0.831250 0.250003 0.168750
v 0.831250 0.100000 0.168750
v 0.168750 0.100000 0.881250
v 0.168750 0.250000 0.118750
v 0.168750 0.250000 0.881250
v 0.831250 0.587500 0.881250
v 0.831250 0.250003 0.118750
v 0.168750 0.100000 0.450000
v 0.168750 0.100000 0.550000
v 0.168750 0.100000 0.168750
v 0.118750 0.100000 0.831250
v 0.550000 0.100000 0.831250
v 0.450000 0.100000 0.831250
v 0.881250 0.250000 0.831250
v 0.881250 0.250003 0.118750
v 0.881250 0.100000 0.831250
v 0.118750 0.250000 0.831250
v 0.881250 0.250003 0.168750
v 0.831250 0.100000 0.831250
v 0.168750 0.100000 0.831250
v 0.118750 0.587500 0.831250
v 0.118750 0.587500 0.881250
v 0.168750 0.587500 0.881250
v 0.168750 0.587500 0.831250
v 0.168750 0.587500 0.118750
v 0.118750 0.587500 0.118750
v 0.168750 0.587500 0.168750
v 0.118750 0.587500 0.168750
v 0.881250 0.587500 0.168750
v 0.831250 0.587500 0.168750
v 0.831250 0.587500 0.118750
v 0.881250 0.587500 0.118750
v 0.881250 0.900000 0.168750
v 0.831250 0.900000 0.168750
v 0.831250 0.900000 0.118750
v 0.881250 0.900000 0.118750
v 0.168750 0.900000 0.118750
v 0.118750 0.900000 0.118750
v 0.168750 0.900000 0.168750
v 0.118750 0.900000 0.168750
v 0.118750 0.900000 0.831250
v 0.118750 0.900000 0.881250
v 0.168750 0.900000 0.881250
v 0.168750 0.900000 0.831250
v 0.881250 0.900000 0.881250
v 0.881250 0.900000 0.831250
v 0.831250 0.900000 0.881250
v 0.831250 0.900000 0.831250
v 0.881250 0.587500 0.168750
v 0.831250 0.587500 0.168750
v 0.881250 0.587500 0.831250
v 0.831250 0.587500 0.831250
v 0.831250 0.587500 0.168750
v 0.831250 0.587500 0.118750
v 0.168750 0.587500 0.118750
v 0.168750 0.587500 0.168750
v 0.168750 0.587500 0.168750
v 0.118750 0.587500 0.168750
v 0.118750 0.587500 0.831250
v 0.168750 0.587500 0.831250
v 0.168750 0.587500 0.881250
v 0.168750 0.587500 0.831250
v 0.831250 0.587500 0.881250
v 0.831250 0.587500 0.831250
v 0.168750 0.462500 0.831250
v 0.831250 0.462500 0.831250
v 0.831250 0.462500 0.168750
v 0.168750 0.462500 0.168750
v 0.168750 0.462500 0.831250
v 0.831250 0.462500 0.831250
v 0.831250 0.462500 0.168750
v 0.168750 0.462500 0.168750
v 0.469235 0.425000 0.530765
v 0.530765 0.425000 0.530765
v 0.530765 0.425000 0.469235
v 0.469235 0.425000 0.469235
v 0.469235 0.360000 0.530765
v 0.530765 0.360000 0.530765
v 0.530765 0.360000 0.469235
v 0.469235 0.360000 0.469235
v 0.831250 0.825000 0.168750
v 0.831250 0.825000 0.831250
v 0.168750 0.825000 0.168750
v 0.168750 0.825000 0.831250
vt 0.9936 0.5024
vt 0.9936 0.7536
vt 0.9747 0.7536
vt 0.9747 0.5024
vt 0.0000 0.0000
vt 0.0000 0.0000
vt 0.0000 0.0000
vt 0.0000 0.0000
vt 0.6133 1.0000
vt 0.6133 0.8721
vt 0.6321 0.8721
vt 0.6321 1.0000
vt 0.5755 1.0000
vt 0.5755 0.8721
vt 0.5944 0.8721
vt 0.5944 1.0000
vt 0.7123 1.0000
vt 0.6934 1.0000
vt 0.6934 0.8721
vt 0.7123 0.8721
vt 0.4843 0.5024
vt 0.5377 0.5293
vt 0.5377 0.7267
vt 0.4843 0.7536
vt 0.8302 1.0000
vt 0.8302 0.8721
vt 0.8491 0.8721
vt 0.8491 1.0000
vt 0.6934 0.7536
vt 0.7123 0.7536
vt 0.7312 0.7536
vt 0.7500 0.7536
vt 0.7500 0.8815
vt 0.7312 0.8815
vt 0.5221 1.0000
vt 0.5032 1.0000
vt 0.5032 0.8721
vt 0.5221 0.8721
vt 0.6133 0.7536
vt 0.6321 0.7536
vt 0.7123 1.0000
vt 0.7123 0.8721
vt 0.7312 0.8721
vt 0.7312 1.0000
vt 0.7123 0.7536
vt 0.7312 0.7536
vt 0.0000 0.2891
vt 0.0000 0.2702
vt 0.0189 0.2702
vt 0.0189 0.2891
vt 0.7500 1.0000
vt 0.7312 1.0000
vt 0.5032 0.7536
vt 0.5221 0.7536
vt 0.8302 0.7536
vt 0.8491 0.7536
vt 0.5755 0.7536
vt 0.5944 0.7536
vt 0.6557 0.5024
vt 0.6557 0.2512
vt 0.7736 0.2512
vt 0.7736 0.5024
vt 0.5378 0.2512
vt 0.5378 0.0000
vt 0.6557 0.0000
vt 0.6557 0.2512
vt 0.2878 0.0190
vt 0.2878 0.2702
vt 0.2689 0.2702
vt 0.2689 0.0190
vt 0.0377 0.9479
vt 0.0377 0.8294
vt 0.0566 0.8294
vt 0.0566 0.9479
vt 0.9747 0.7536
vt 0.9559 0.7536
vt 0.9559 0.5024
vt 0.9747 0.5024
vt 0.6557 0.7536
vt 0.5378 0.7536
vt 0.5378 0.5024
vt 0.6557 0.5024
vt 0.0377 0.8294
vt 0.0377 0.9479
vt 0.0189 0.9479
vt 0.0189 0.8294
vt 0.0000 0.5782
vt 0.1179 0.5782
vt 0.1179 0.8294
vt 0.0000 0.8294
vt 0.2689 0.2891
vt 0.6557 0.5024
vt 0.7736 0.5024
vt 0.7736 0.7536
vt 0.5378 0.5024
vt 0.5378 0.2512
vt 0.6557 0.2512
vt 0.6557 0.5024
vt 0.0189 0.0190
vt 0.0000 0.0190
vt 0.2358 0.8294
vt 0.1179 0.8294
vt 0.1179 0.5782
vt 0.2358 0.5782
vt 0.7736 0.2512
vt 0.6557 0.2512
vt 0.6557 0.0000
vt 0.7736 0.0000
vt 0.2358 0.8294
vt 0.2358 0.5782
vt 0.2830 0.5782
vt 0.2830 0.8294
vt 0.0189 0.0000
vt 0.2689 0.0000
vt 0.4670 0.6999
vt 0.4670 0.9511
vt 0.4387 0.9511
vt 0.4387 0.6999
vt 0.0000 0.0000
vt 0.0000 0.0000
vt 0.0000 0.0000
vt 0.0000 0.0000
vt 0.3821 0.6999
vt 0.3821 0.9511
vt 0.3349 0.9511
vt 0.3349 0.6999
vt 0.2878 0.9511
vt 0.2878 0.6999
vt 0.3349 0.6999
vt 0.9340 0.0000
vt 0.9340 0.2512
vt 0.8868 0.2512
vt 0.8868 0.0000
vt 0.5378 0.0000
vt 0.5378 0.2512
vt 0.4244 0.1373
vt 0.4244 0.1139
vt 0.0000 0.0000
vt 0.0000 0.0000
vt 0.0000 0.0000
vt 0.0000 0.0000
vt 0.0987 0.8294
vt 0.1219 0.8294
vt 0.1219 0.8541
vt 0.0987 0.8541
vt 0.2878 0.2512
vt 0.2878 0.0000
vt 0.4012 0.1139
vt 0.4012 0.1373
vt 0.1684 0.8294
vt 0.1916 0.8294
vt 0.1916 0.8528
vt 0.1684 0.8528
vt 0.1451 0.8294
vt 0.1684 0.8294
vt 0.1684 0.8541
vt 0.1451 0.8541
vt 0.0755 0.8294
vt 0.0987 0.8294
vt 0.0987 0.8541
vt 0.0755 0.8541
vt 0.1219 0.8294
vt 0.1219 0.8541
vt 0.2878 0.2512
vt 0.5378 0.2512
vt 0.5378 0.5024
vt 0.2878 0.5024
vt 0.9340 0.2512
vt 0.9340 0.0000
vt 0.9623 0.0000
vt 0.9623 0.2512
vt 0.3821 0.9511
vt 0.3821 0.6999
vt 0.4104 0.6999
vt 0.4104 0.9511
vt 0.4104 0.9511
vt 0.4104 0.6999
vt 0.4387 0.9511
vt 0.1628 0.3081
vt 0.1250 0.3081
vt 0.1250 0.2891
vt 0.1628 0.2891
vt 0.2689 0.3081
vt 0.2689 0.2891
vt 0.7736 0.7038
vt 0.8302 0.7038
vt 0.8302 0.7417
vt 0.7736 0.7417
vt 0.7736 0.0190
vt 0.8302 0.0190
vt 0.8302 0.1256
vt 0.7736 0.1256
vt 0.8302 0.1635
vt 0.7736 0.1635
vt 0.7736 0.5972
vt 0.8302 0.5972
vt 0.9747 0.5024
vt 0.9747 0.2512
vt 0.9936 0.2512
vt 0.9936 0.5024
vt 0.7736 0.2702
vt 0.8302 0.2702
vt 0.8302 0.2891
vt 0.7736 0.2891
vt 0.8302 0.3081
vt 0.7736 0.3081
vt 0.7736 0.2891
vt 0.8302 0.2891
vt 0.0000 0.0000
vt 0.0000 0.0000
vt 0.0000 0.0000
vt 0.0000 0.0000
vt 0.5567 1.0000
vt 0.5567 0.8721
vt 0.5755 0.8721
vt 0.5755 1.0000
vt 0.6368 1.0000
vt 0.6368 0.8721
vt 0.6557 0.8721
vt 0.6557 1.0000
vt 0.9370 0.5545
vt 0.9370 0.4976
vt 0.9559 0.4976
vt 0.9559 0.5545
vt 0.0566 0.8863
vt 0.0566 0.8294
vt 0.0755 0.8294
vt 0.0755 0.8863
vt 0.9370 0.3697
vt 0.9559 0.3697
vt 0.8302 0.4526
vt 0.7736 0.4526
vt 0.7736 0.4147
vt 0.8302 0.4147
vt 0.8868 0.2512
vt 0.8302 0.2512
vt 0.8302 0.1446
vt 0.8868 0.1446
vt 0.2689 0.5593
vt 0.1628 0.5593
vt 0.1628 0.4526
vt 0.2689 0.4526
vt 0.1250 0.5593
vt 0.1250 0.4526
vt 0.0189 0.5593
vt 0.0000 0.5593
vt 0.0000 0.4526
vt 0.0189 0.4526
vt 0.8302 0.5593
vt 0.7736 0.5593
vt 0.8302 0.1066
vt 0.8868 0.1066
vt 0.1628 0.4147
vt 0.2689 0.4147
vt 0.1250 0.4147
vt 0.0000 0.4147
vt 0.0189 0.4147
vt 0.9623 0.2512
vt 0.9623 0.0000
vt 0.9811 0.0000
vt 0.9811 0.2512
vt 0.6368 0.7536
vt 0.6557 0.7536
vt 0.9370 0.5024
vt 0.8836 0.4755
vt 0.8836 0.2781
vt 0.9370 0.2512
vt 0.7736 0.5782
vt 0.8302 0.5782
vt 0.0189 0.3081
vt 0.0189 0.2891
vt 0.1250 0.5782
vt 0.0189 0.5782
vt 0.9370 0.5024
vt 0.9370 0.5593
vt 0.9181 0.5593
vt 0.9181 0.5024
vt 0.1628 0.5782
vt 0.2689 0.5782
vt 0.6557 1.0000
vt 0.6557 0.8721
vt 0.6746 0.8721
vt 0.6746 1.0000
vt 0.2878 0.4526
vt 0.2878 0.4147
vt 0.2878 0.5593
vt 0.8836 0.5024
vt 0.8302 0.4755
vt 0.8302 0.2781
vt 0.8836 0.2512
vt 0.8302 0.8484
vt 0.7736 0.8484
vt 0.7736 0.0000
vt 0.8302 0.0000
vt 0.9559 0.5024
vt 0.9559 0.2512
vt 0.9747 0.2512
vt 0.9747 0.5024
vt 0.2878 0.3081
vt 0.4843 0.6999
vt 0.2878 0.6999
vt 0.2878 0.5024
vt 0.4843 0.5024
vt 0.8302 0.5782
vt 0.7736 0.5782
vt 0.8302 0.5024
vt 0.8836 0.5293
vt 0.8836 0.7267
vt 0.8302 0.7536
vt 0.8302 0.0000
vt 0.8868 0.0000
vt 0.0000 0.3081
vt 0.6746 0.8721
vt 0.6746 0.7536
vt 0.6934 0.7536
vt 0.6934 0.8721
vt 0.6746 1.0000
vt 0.6934 1.0000
vt 0.4843 1.0000
vt 0.4843 0.8721
vt 0.5032 0.8721
vt 0.5032 1.0000
vt 0.5567 1.0000
vt 0.5378 1.0000
vt 0.5378 0.8721
vt 0.5567 0.8721
vt 0.9370 0.6872
vt 0.9181 0.6872
vt 0.5944 1.0000
vt 0.5944 0.8721
vt 0.6133 0.8721
vt 0.6133 1.0000
vt 0.2878 0.2891
vt 0.5944 0.7536
vt 0.6133 0.7536
vt 0.9370 0.8057
vt 0.9181 0.8057
vt 0.5378 0.7536
vt 0.5567 0.7536
vt 0.0000 0.0000
vt 0.5567 0.7536
vt 0.5755 0.7536
vt 0.4843 0.7536
vt 0.5032 0.7536
vt 0.2878 0.0000
vt 0.6557 0.7536
vt 0.6746 0.7536
vt 0.9370 0.2512
vt 0.9559 0.2512
vt 0.8993 0.7536
vt 0.9181 0.7536
vt 0.9181 0.8721
vt 0.8993 0.8721
vt 0.9370 0.8057
vt 0.9370 0.5545
vt 0.9559 0.5545
vt 0.9559 0.8057
vt 0.8679 0.7536
vt 0.8868 0.7536
vt 0.8868 0.8721
vt 0.8679 0.8721
vt 0.7500 0.7536
vt 0.7689 0.7536
vt 0.7689 0.8721
vt 0.7500 0.8721
vt 0.8993 0.7536
vt 0.8993 0.5024
vt 0.9181 0.5024
vt 0.9181 0.7536
vt 0.8491 0.7536
vt 0.8679 0.7536
vt 0.8679 0.8721
vt 0.8491 0.8721
vt 0.0189 0.8294
vt 0.0189 0.9479
vt 0.0000 0.9479
vt 0.0000 0.8294
vt 1.0000 0.0000
vt 1.0000 0.2512
vt 0.9811 0.2512
vt 0.9811 0.0000
vt 0.9370 0.8057
vt 0.9370 0.9241
vt 0.9181 0.9241
vt 0.9181 0.8057
vn 0.0000 1.0000 0.0000
vn 0.0000 0.0000 1.0000
vn 0.0000 0.0000 -1.0000
vn -1.0000 0.0000 0.0000
vn 0.0000 0.4514 0.8923
vn 1.0000 0.0000 0.0000
vn 0.0000 -1.0000 0.0000
vn 0.1238 -0.9923 0.0000
vn -0.1238 -0.9923 0.0000
vn 0.0000 -0.9923 0.1238
vn 0.0000 -0.9923 -0.1238
vn 0.0000 -0.7071 0.7071
vn 0.0000 -0.4472 0.8944
vn 0.0000 -0.4472 -0.8944
vn 0.0000 -0.7071 -0.7071
vn 0.0000 0.3162 0.9487
vn -0.5773 0.5773 0.5773
vn -0.4666 0.7513 -0.4666
vn 0.2134 0.8713 0.4419
vn 0.7071 0.0000 -0.7071
vn -0.8944 -0.4472 0.0000
vn -0.7071 0.0000 -0.7071
vn 0.0000 0.4472 0.8944
vn -0.7071 0.0000 0.7071
vn 0.7071 0.0000 0.7071
vn 0.3162 0.0000 0.9487
vn 0.8165 0.4082 -0.4082
vn 0.8944 -0.4472 0.0000
vn 0.8944 0.0000 0.4472
vn -0.7071 -0.7071 0.0000
vn 0.7071 -0.7071 0.0000
vn -0.4666 0.7513 0.4666
vn 0.8165 0.4082 0.4082
vn 0.7071 0.7071 0.0000
vn 0.4230 0.8013 -0.4230
vn 0.4230 0.8013 0.4230
vn 0.4666 0.7513 0.4666
vn 0.8944 0.0000 -0.4472
vn -0.4230 0.8013 0.4230
vn -0.4230 0.8013 -0.4230
vn -0.3162 0.0000 0.9487
vn 0.0000 0.7071 0.7071
vn 0.5773 0.5773 -0.5773
vn 0.0000 0.7071 -0.7071
vn -0.7071 0.7071 0.0000
vn 0.5773 0.5773 0.5773
vn -0.5773 -0.5773 0.5773
vn 0.5773 -0.5773 0.5773
vn -0.5773 -0.5773 -0.5773
vn 0.5773 -0.5773 -0.5773
usemtl Caster
s off
f 83/29/8 40/30/8 57/31/8 77/32/8
f 59/33/9 30/34/9 48/35/9 60/36/9
f 83/37/10 107/38/10 108/39/10 91/40/10
f 66/41/9 29/42/9 82/43/9 67/44/9
f 39/45/11 58/46/11 104/47/11 102/48/11
f 57/49/12 36/50/12 33/51/12 77/52/12
f 30/53/11 98/54/11 97/55/11 48/56/11
f 102/48/11 104/47/11 116/57/11 114/58/11
f 57/59/13 40/60/13 101/61/13 103/62/13
f 40/63/10 39/64/10 102/65/10 101/66/10
f 107/38/10 111/67/10 112/68/10 108/39/10
f 77/69/11 106/70/11 107/71/11 83/72/11
f 106/70/11 110/73/11 111/74/11 107/71/11
f 114/75/8 116/76/8 115/77/8 113/78/8
f 103/62/13 101/61/13 113/79/13 115/80/13
f 101/66/10 102/65/10 114/81/10 113/82/10
f 98/54/11 118/83/11 117/84/11 97/55/11
f 29/42/9 121/85/9 123/86/9 82/43/9
f 109/87/13 122/88/13 127/89/13 125/90/13
f 124/91/11 110/92/11 126/93/11 128/94/11
f 122/95/8 109/96/8 110/97/8 124/98/8
f 110/99/13 129/100/13 130/101/13 111/102/13
f 132/103/14 131/104/14 130/105/14 129/106/14
f 115/107/9 132/108/9 129/109/9 110/110/9
f 113/111/11 131/112/11 132/113/11 115/114/11
f 111/115/10 130/116/10 131/117/10 113/118/10
f 113/78/8 115/77/8 110/97/8 111/119/8
f 115/107/13 120/120/13 136/121/13 133/122/13
f 117/123/11 116/124/11 134/125/11 135/126/11
f 120/127/8 115/77/8 116/76/8 117/128/8
f 124/129/10 140/130/10 138/131/10 120/132/10
f 119/133/9 137/134/9 139/135/9 123/136/9
f 138/137/11 133/138/11 144/139/11 141/140/11
f 120/127/8 119/141/8 123/142/8 124/98/8
f 124/143/9 120/144/9 160/145/9 158/146/9
f 144/147/9 143/148/9 147/149/9 148/150/9
f 133/151/10 129/152/10 143/153/10 144/154/10
f 129/155/13 140/156/13 142/157/13 143/153/13
f 140/158/9 138/159/9 141/160/9 142/161/9
f 147/162/15 146/163/15 150/164/15 151/165/15
f 143/148/9 142/166/9 146/167/9 147/149/9
f 141/168/9 144/147/9 148/150/9 145/169/9
f 142/166/9 141/168/9 145/169/9 146/167/9
f 149/170/11 152/171/11 156/172/11 153/173/11
f 145/174/16 148/175/16 152/176/16 149/177/16
f 146/163/17 145/174/17 149/177/17 150/164/17
f 148/175/18 147/162/18 151/165/18 152/176/18
f 155/178/14 154/179/14 153/180/14 156/181/14
f 150/182/9 149/183/9 153/184/9 154/185/9
f 152/186/10 151/187/10 155/188/10 156/189/10
f 151/190/13 150/182/13 154/185/13 155/191/13
f 159/192/14 157/193/14 158/194/14 160/195/14
f 115/196/10 110/197/10 157/198/10 159/199/10
f 120/200/11 115/201/11 159/202/11 160/203/11
f 110/204/13 124/205/13 158/146/13 157/206/13
s 1
f 89/207/14 88/208/14 18/209/19 20/210/19
f 96/211/14 89/207/14 20/210/19 79/212/20
f 18/213/19 25/214/9 28/215/9 20/216/19
f 61/217/21 80/218/10 27/219/10 19/220/22
f 19/220/22 27/219/10 26/221/10 17/222/22
f 62/223/20 64/224/9 25/214/9 18/213/19
f 38/225/23 67/226/24 56/227/25 37/228/26
f 63/229/21 65/230/10 23/231/10 16/232/27
f 73/233/28 71/234/11 22/235/29 14/236/29
f 60/36/30 48/35/31 72/237/32 37/238/26
f 37/238/26 72/237/32 35/239/33 38/240/23
f 48/241/31 97/242/29 100/243/27 72/244/32
f 56/245/25 31/246/29 32/247/27 53/248/34
f 92/249/35 53/250/34 66/251/36 15/252/32
f 79/253/20 38/254/23 59/255/9 13/256/31
f 53/250/34 32/257/27 29/258/32 66/251/36
f 49/259/37 55/260/11 46/261/11 41/262/37
f 70/263/35 76/264/13 45/265/13 42/266/38
f 86/267/14 75/268/14 44/269/14 84/270/14
f 75/268/14 74/271/14 43/272/14 44/269/14
f 78/273/14 70/274/35 42/275/38 68/276/14
f 87/277/28 93/278/11 55/260/11 49/259/37
f 42/266/38 45/265/13 52/279/13 54/280/38
f 84/270/14 44/269/14 51/281/14 85/282/14
f 44/269/14 43/272/14 50/283/14 51/281/14
f 68/276/14 42/275/38 54/284/38 69/285/14
f 77/286/39 56/287/25 53/288/34 94/289/40
f 43/272/14 68/276/14 69/285/14 50/283/14
f 74/271/14 78/273/14 68/276/14 43/272/14
f 31/246/29 124/290/8 122/291/41 32/247/27
f 37/292/26 47/293/42 36/294/43 57/295/44
f 17/222/22 26/221/10 65/230/10 63/229/21
f 15/296/32 24/297/9 64/224/9 62/223/20
f 88/208/14 95/298/14 62/299/20 18/209/19
f 17/300/22 63/301/21 78/273/14 74/271/14
f 16/302/27 91/303/45 94/304/40 70/305/35
f 19/306/22 17/300/22 74/271/14 75/268/14
f 61/307/21 19/306/22 75/268/14 86/267/14
f 67/308/24 82/309/31 31/310/29 56/311/25
f 41/262/37 46/261/11 71/234/11 73/233/28
f 41/312/37 84/270/14 85/282/14 49/313/37
f 73/314/28 86/267/14 84/270/14 41/312/37
f 77/315/39 33/316/46 34/317/47 56/318/25
f 38/240/23 35/239/33 30/34/48 59/33/9
f 20/216/19 28/215/9 81/319/9 79/320/20
f 14/321/29 22/322/29 80/218/10 61/217/21
f 58/323/24 60/324/30 37/325/26 57/326/44
f 49/313/37 85/282/14 96/211/14 87/327/28
f 50/283/14 69/285/14 95/298/14 88/208/14
f 36/328/43 47/329/42 34/330/47 33/331/46
f 13/332/31 21/333/11 93/278/11 87/277/28
f 56/334/25 34/335/47 47/336/42 37/337/26
f 54/280/38 52/279/13 90/338/13 92/339/35
f 85/282/14 51/281/14 89/207/14 96/211/14
f 51/281/14 50/283/14 88/208/14 89/207/14
f 69/285/14 54/284/38 92/340/35 95/298/14
f 100/341/27 120/342/8 119/343/49 99/344/32
f 72/345/32 100/341/27 99/344/32 35/346/33
f 35/347/33 99/348/32 98/349/31 30/350/48
f 58/351/24 57/352/44 103/353/32 104/354/31
f 91/303/45 108/355/27 105/356/32 94/304/40
f 94/357/40 105/358/32 106/359/31 77/360/39
f 110/97/8 109/96/41 112/361/50 111/119/51
f 105/358/32 109/362/41 110/363/8 106/359/31
f 108/355/27 112/364/50 109/365/41 105/356/32
f 104/354/31 103/353/32 115/366/8 116/367/52
f 120/127/8 117/128/52 118/368/24 119/141/49
f 97/242/29 117/369/52 120/370/8 100/243/27
f 99/348/32 119/371/49 118/372/24 98/349/31
f 122/95/41 124/98/8 123/142/49 121/373/53
f 82/309/31 123/374/49 124/375/8 31/310/29
f 32/257/27 122/376/41 121/377/53 29/258/32
f 122/378/41 124/379/8 128/380/54 127/381/55
f 128/382/54 126/383/56 125/384/57 127/385/55
f 110/386/8 109/387/41 125/388/57 126/389/56
f 116/390/52 115/391/8 133/392/21 134/393/56
f 135/394/54 134/395/56 133/396/21 136/397/55
f 120/398/8 117/399/52 135/400/54 136/401/55
f 120/402/8 138/403/28 137/404/54 119/405/49
f 139/406/55 137/407/54 138/408/28 140/409/35
f 123/410/49 139/411/55 140/412/35 124/413/8
l 81 21
l 90 24
l 67 62
l 56 95
l 87 60
l 96 37
l 78 77
l 83 63
l 23 76
l 86 57
l 58 73
l 39 14
l 61 40
o Glass_Right_Plane.001
v 0.118750 0.250000 0.168850
v 0.118750 0.250000 0.831350
v 0.118750 0.587500 0.168850
v 0.118750 0.587500 0.831350
vt 0.0001 0.0001
vt 0.9999 0.0001
vt 0.9999 1.0000
vt 0.0001 1.0000
vn -1.0000 0.0000 0.0000
usemtl Glass
s off
f 161/414/58 162/415/58 164/416/58 163/417/58
o Glass_Back_Plane.002
v 0.168850 0.250000 0.881250
v 0.831350 0.250000 0.881250
v 0.168850 0.587500 0.881250
v 0.831350 0.587500 0.881250
v 0.168850 0.462500 0.881250
v 0.831350 0.462500 0.881250
v 0.318750 0.250000 0.881250
v 0.318750 0.587500 0.881250
v 0.318750 0.462500 0.881250
v 0.681250 0.250000 0.881250
v 0.681250 0.587500 0.881250
v 0.681250 0.462500 0.881250
vt 0.6296 0.2266
vt 0.6296 0.0000
vt 1.0000 0.0000
vt 1.0000 0.2266
vt 0.0000 0.2266
vt 0.0000 0.0000
vt 0.0000 1.0000
vt 0.0000 0.7737
vt 0.6296 0.7737
vt 0.6296 1.0000
vt 1.0000 0.7737
vt 1.0000 1.0000
vn 0.0000 0.0000 1.0000
usemtl Glass
s off
f 176/418/59 170/419/59 168/420/59 175/421/59
f 174/422/59 166/423/59 170/419/59 176/418/59
f 165/424/59 171/425/59 173/426/59 169/427/59
f 169/427/59 173/426/59 172/428/59 167/429/59
f 171/425/59 174/422/59 176/418/59 173/426/59
o Connector_FluidConnector_Cube.001
v 0.681250 0.537500 0.831250
v 0.681250 0.537500 1.000000
v 0.681250 0.462500 1.000000
v 0.681250 0.462500 0.831250
v 0.681250 0.587500 0.831250
v 0.681250 0.587500 1.000000
v 0.606250 0.537500 1.000000
v 0.606250 0.462500 1.000000
v 0.606250 0.587500 0.831250
v 0.606250 0.587500 1.000000
v 0.393750 0.537500 1.000000
v 0.393750 0.462500 1.000000
v 0.606250 0.537500 0.831250
v 0.393750 0.537500 0.831250
v 0.318750 0.537500 1.000000
v 0.318750 0.462500 1.000000
v 0.393750 0.587500 0.831250
v 0.393750 0.587500 1.000000
v 0.318750 0.587500 1.000000
v 0.318750 0.537500 0.831250
v 0.318750 0.462500 0.831250
v 0.318750 0.587500 0.831250
vt 0.8974 0.8571
vt 0.6538 0.8571
vt 0.6538 0.7013
vt 0.8974 0.7013
vt 0.8974 0.9610
vt 0.6538 0.9610
vt 0.1538 0.0000
vt 0.1538 0.1558
vt 0.0000 0.1558
vt 0.0000 0.0000
vt 0.6538 0.7532
vt 0.6538 1.0000
vt 0.5000 1.0000
vt 0.5000 0.7532
vt 0.2564 0.0000
vt 0.2564 0.1558
vt 0.1538 0.5974
vt 0.0000 0.5974
vt 0.1538 1.0000
vt 0.1538 0.7532
vt 0.2564 0.7532
vt 0.2564 1.0000
vt 0.8974 0.0000
vt 0.8974 0.4416
vt 0.6538 0.4416
vt 0.6538 0.0000
vt 0.1538 0.7532
vt 0.0000 0.7532
vt 0.5000 0.7532
vt 0.5000 1.0000
vt 0.3974 1.0000
vt 0.3974 0.7532
vt 0.2564 0.5974
vt 0.2564 0.7532
vt 0.6538 0.5455
vt 0.8974 0.5455
vt 0.8974 0.7013
vt 0.6538 0.7013
vt 0.1538 0.7532
vt 0.1538 1.0000
vt 0.0000 1.0000
vt 0.0000 0.7532
vt 0.6538 0.4416
vt 0.8974 0.4416
vt 0.2949 0.7532
vt 0.3974 0.7532
vt 0.3974 0.9091
vt 0.2949 0.9091
vt 0.8974 0.0000
vt 1.0000 0.0000
vt 1.0000 0.1558
vt 0.8974 0.1558
vt 0.5000 0.7532
vt 0.5000 0.0000
vt 0.6538 0.0000
vt 0.6538 0.7532
vt 0.5000 0.0000
vt 0.5000 0.1558
vt 0.5000 0.5974
vt 0.5000 0.7532
vt 0.2564 0.7532
vt 0.2564 0.0000
vn 1.0000 -0.0000 0.0000
vn 0.0000 0.0000 1.0000
vn 0.0000 1.0000 0.0000
vn -1.0000 0.0000 0.0000
vn 0.0000 0.0000 -1.0000
vn -0.0000 -1.0000 0.0000
usemtl Connector
s 1
f 177/430/60 178/431/60 179/432/60 180/433/60
f 181/434/60 182/435/60 178/431/60 177/430/60
f 178/436/61 183/437/61 184/438/61 179/439/61
f 185/440/62 186/441/62 182/442/62 181/443/62
f 182/444/61 186/445/61 183/437/61 178/436/61
f 183/437/61 187/446/61 188/447/61 184/438/61
f 186/448/63 185/449/63 189/450/63 183/451/63
f 187/452/62 183/453/62 189/454/62 190/455/62
f 187/446/61 191/456/61 192/457/61 188/447/61
f 193/458/60 194/459/60 187/460/60 190/461/60
f 194/462/61 195/463/61 191/456/61 187/446/61
f 191/464/63 196/465/63 197/466/63 192/467/63
f 198/468/62 195/469/62 194/470/62 193/471/62
f 195/472/63 198/473/63 196/465/63 191/464/63
f 181/474/64 177/475/64 189/476/64 185/477/64
f 193/478/64 190/479/64 196/480/64 198/481/64
f 180/482/64 197/483/64 196/484/64 177/485/64
f 179/486/65 184/487/65 188/488/65 192/489/65 197/490/65 180/491/65
o Glass_Left_Plane.003
v 0.881250 0.250000 0.831150
v 0.881250 0.250000 0.168650
v 0.881250 0.587500 0.831150
v 0.881250 0.587500 0.168650
vt 0.0001 0.0001
vt 0.9999 0.0001
vt 0.9999 1.0000
vt 0.0001 1.0000
vn 1.0000 0.0000 -0.0000
usemtl Glass
s off
f 199/492/66 200/493/66 202/494/66 201/495/66
