# Blender v2.74 (sub 0) OBJ File: 'ArmorersAnvil.blend'
# www.blender.org
mtllib BlockModel.mtl
o Anvil
v 0.025000 1.000000 0.120000
v 0.025000 1.000000 0.879999
v 0.975000 1.000000 0.140000
v 0.975000 1.000000 0.879999
v 0.250000 0.175000 0.700000
v 0.250000 0.666667 0.700000
v 0.000000 0.733333 0.900000
v 0.000000 0.733333 0.100000
v 0.250000 0.666667 0.300000
v 0.250000 0.175000 0.300000
v 1.000000 0.733333 0.900000
v 0.750000 0.666667 0.700000
v 0.750000 0.175000 0.700000
v 0.750000 0.175000 0.300000
v 0.750000 0.666667 0.300000
v 1.000000 0.733333 0.100000
v 0.750000 0.666667 0.700000
v 0.750000 0.175000 0.700000
v 0.250000 0.175000 0.700000
v 0.250000 0.666667 0.700000
v 0.750000 0.175000 0.300000
v 0.750000 0.666667 0.300000
v 0.250000 0.175000 0.300000
v 0.250000 0.666667 0.300000
v 0.000000 0.980767 0.900000
v 1.000000 0.980767 0.120000
v 0.000000 0.980767 0.100000
v 1.000000 0.980767 0.900000
v 1.000000 0.980767 0.120000
v 0.975000 1.000000 0.140000
v 0.025000 1.000000 0.120000
vt 0.360330 0.799990
vt 0.351322 0.789990
vt 0.351322 0.409995
vt 0.360330 0.399995
vt 0.009008 0.789990
vt 0.009008 0.419995
vt 0.000000 0.409995
vt 0.000000 0.799990
vt 0.630578 0.699992
vt 0.720660 0.799990
vt 0.450413 0.699992
vt 0.450413 0.499994
vt 0.720660 0.399995
vt 0.630578 0.499994
vt 0.899115 0.399995
vt 0.809957 0.399995
vt 0.809957 0.000000
vt 0.899115 0.010000
vt 0.000000 0.000000
vt 0.809818 0.400033
vt 0.898976 0.400033
vt 0.898976 0.800029
vt 0.809818 0.800029
vt 0.809932 0.400033
vt 0.720786 0.400033
vt 0.720660 0.000000
vn -0.609800 0.792600 0.000000
vn 0.000000 1.000000 0.000000
vn 0.014200 0.720700 -0.693100
vn 0.000000 0.720800 0.693100
vn -0.000000 -0.948700 0.316200
vn 0.000000 -0.948700 -0.316200
vn 1.000000 0.000000 0.000000
vn 0.257700 -0.966200 -0.000000
vn -0.257700 -0.966200 0.000000
vn 0.000000 0.000000 1.000000
vn 0.609800 0.792600 0.000000
vn 0.010000 0.040400 -0.999100
vn -1.000000 0.000000 0.000000
usemtl Anvil
s off
f 25/1/1 2/2/1 1/3/1 27/4/1
f 2/2/2 4/5/2 3/6/2 1/3/2
f 27/4/3 1/3/3 3/6/3 26/7/3
f 28/8/4 4/5/4 2/2/4 25/1/4
f 12/9/5 11/10/5 7/1/5 6/11/5
f 9/12/6 8/4/6 16/13/6 15/14/6
f 28/15/7 11/16/7 16/17/7 26/18/7
f 11/10/8 12/9/8 15/14/8 16/13/8
f 6/11/9 7/1/9 8/4/9 9/12/9
f 9/19/10 15/19/10 22/19/10 24/19/10
f 12/19/10 6/19/10 20/19/10 17/19/10
f 5/19/10 13/19/10 18/19/10 19/19/10
f 14/19/10 10/19/10 23/19/10 21/19/10
f 4/5/11 28/8/11 26/7/11 3/6/11
f 11/20/10 28/21/10 25/22/10 7/23/10
f 8/24/12 27/25/12 26/26/12 16/17/12
f 7/13/13 25/20/13 27/23/13 8/10/13
l 29 30
l 30 31
o Bottom
v 0.000000 0.000000 0.100000
v 0.000000 0.000000 0.900000
v 1.000000 0.000000 0.100000
v 1.000000 0.000000 0.900000
v 0.000000 0.140000 0.900000
v 0.250000 0.175000 0.700000
v 0.250000 0.175000 0.300000
v 0.000000 0.140000 0.100000
v 0.750000 0.175000 0.700000
v 1.000000 0.140000 0.900000
v 1.000000 0.140000 0.100000
v 0.750000 0.175000 0.300000
v 0.750000 0.666667 0.700000
v 0.750000 0.175000 0.700000
v 0.250000 0.175000 0.700000
v 0.250000 0.666667 0.700000
v 0.750000 0.175000 0.300000
v 0.750000 0.666667 0.300000
v 0.250000 0.175000 0.300000
v 0.250000 0.666667 0.300000
vt 0.999868 0.800029
vt 0.949422 0.800029
vt 0.949422 0.400033
vt 0.999868 0.400033
vt 0.360330 0.000000
vt 0.720660 0.000000
vt 0.720660 0.399995
vt 0.360330 0.399995
vt 0.899115 0.000000
vt 0.949561 0.000000
vt 0.949561 0.399995
vt 0.899115 0.399995
vt 0.000000 0.000000
vt 0.090083 0.099999
vt 0.090083 0.299996
vt 0.000000 0.399995
vt 1.000000 0.399992
vt 1.000000 0.000000
vt 0.270248 0.299996
vt 0.270247 0.099999
vt 0.898976 0.400033
vt 0.898976 0.800029
vt 0.000000 0.999988
vt 0.000000 0.799990
vt 0.177162 0.799990
vt 0.177162 0.999988
vt 0.708624 0.999986
vt 0.531487 1.000000
vt 0.531487 0.800004
vt 0.708624 0.799990
vt 0.354325 0.799990
vt 0.354325 0.999988
vn 1.000000 0.000000 0.000000
vn 0.000000 -1.000000 -0.000000
vn 0.000000 0.000000 1.000000
vn 0.000000 0.985000 0.172400
vn 0.000000 0.000000 -1.000000
vn -0.000000 0.985000 -0.172400
vn 0.138600 0.990300 0.000000
vn -1.000000 0.000000 0.000000
vn -0.138600 0.990300 0.000000
usemtl Bottom
s off
f 41/27/14 35/28/14 34/29/14 42/30/14
f 35/31/15 33/32/15 32/33/15 34/34/15
f 35/35/16 41/36/16 36/37/16 33/38/16
f 41/39/17 40/40/17 37/41/17 36/42/17
f 32/43/18 39/37/18 42/36/18 34/44/18
f 39/34/19 38/45/19 43/46/19 42/31/19
f 40/40/20 41/39/20 42/31/20 43/46/20
f 33/47/21 36/29/21 39/28/21 32/48/21
f 36/42/22 37/41/22 38/45/22 39/34/22
f 45/49/14 48/50/14 49/51/14 44/52/14
f 49/53/18 48/54/18 50/55/18 51/56/18
f 50/52/21 46/51/21 47/57/21 51/58/21
f 44/55/16 47/54/16 46/58/16 45/57/16
