# Blender v2.74 (sub 0) OBJ File: 'CloserVertical.blend'
# www.blender.org
mtllib CloserVertical.mtl
o Closer_Cube.022
v 0.393750 0.537500 0.393750
v 0.606250 0.537500 0.393750
v 0.393750 0.537500 0.606250
v 0.606250 0.537500 0.606250
v 0.393750 0.462500 0.393750
v 0.606250 0.462500 0.393750
v 0.393750 0.462500 0.606250
v 0.606250 0.462500 0.606250
vt 0.968802 0.184661
vt 0.969307 0.191507
vt 0.970927 0.191507
vt 0.971432 0.184661
vt 0.963767 0.459459
vt 0.963767 0.000000
vt 0.976467 0.000000
vt 0.976467 0.459459
vn 1.000000 0.000000 0.000000
vn 0.000000 0.000000 -1.000000
vn 0.000000 1.000000 0.000000
usemtl Dark-Metal
s off
f 4/1/1 8/1/1 6/2/1 2/2/1
f 1/3/1 3/4/1 7/4/1 5/3/1
usemtl Dark-Metal
f 3/5/2 4/6/2 8/6/2 7/5/2
f 2/7/2 6/7/2 5/8/2 1/8/2
usemtl Dark-Metal
f 6/2/3 5/8/3 7/4/3 8/6/3
f 3/3/3 4/5/3 2/2/3 1/7/3
