# Blender v2.78 (sub 0) OBJ File: ''
# www.blender.org
mtllib vertical.mtl
o FluidConnector_Cube.022
v 0.318750 0.537500 0.000000
v 0.318750 0.462500 0.000000
v 0.318750 0.462500 0.318750
v 0.318750 0.587500 0.000000
v 0.318750 0.537500 0.318750
v 0.393750 0.537500 0.000000
v 0.393750 0.462500 0.000000
v 0.393750 0.587500 0.000000
v 0.318750 0.587500 0.318750
v 0.606250 0.537500 0.000000
v 0.606250 0.462500 0.000000
v 0.393750 0.587500 0.318750
v 0.393750 0.537500 0.318750
v 0.606250 0.537500 0.318750
v 0.681250 0.537500 0.000000
v 0.681250 0.462500 0.000000
v 0.606250 0.587500 0.000000
v 0.681250 0.587500 0.000000
v 0.681250 0.537500 0.318750
v 0.681250 0.462500 0.318750
v 0.606250 0.587500 0.318750
v 0.681250 0.587500 0.318750
v 0.681250 0.462500 0.681250
v 0.393750 0.537500 0.681250
v 0.318750 0.462500 0.681250
v 0.606250 0.587500 0.681250
v 0.606250 0.537500 0.681250
v 0.681250 0.537500 0.681250
v 0.318750 0.587500 0.681250
v 0.318750 0.537500 0.681250
v 0.393750 0.587500 0.606250
v 0.393750 0.537500 0.606250
v 0.318750 0.537500 0.606250
v 0.393750 0.537500 0.393750
v 0.318750 0.537500 0.393750
v 0.318750 0.587500 0.393750
v 0.681250 0.587500 0.606250
v 0.681250 0.537500 0.606250
v 0.606250 0.537500 0.606250
v 0.681250 0.537500 0.393750
v 0.606250 0.537500 0.393750
v 0.606250 0.587500 0.393750
v 0.318750 0.462500 0.318750
v 0.606250 0.537500 0.318750
v 0.681250 0.462500 0.318750
v 0.393750 0.587500 0.318750
v 0.393750 0.537500 0.318750
v 0.318750 0.537500 0.318750
v 0.681250 0.587500 0.318750
v 0.681250 0.537500 0.318750
v 0.681250 0.587500 0.681250
v 0.393750 0.587500 0.681250
v 0.318750 0.587500 0.606250
v 0.393750 0.587500 0.393750
v 0.606250 0.587500 0.606250
v 0.681250 0.587500 0.393750
v 0.318750 0.587500 0.318750
v 0.606250 0.587500 0.318750
v 0.393750 1.000000 0.606250
v 0.318750 1.000000 0.606250
v 0.318750 1.000000 0.681250
v 0.681250 1.000000 0.606250
v 0.606250 1.000000 0.606250
v 0.606250 1.000000 0.681250
v 0.681250 1.000000 0.318750
v 0.606250 1.000000 0.318750
v 0.606250 1.000000 0.393750
v 0.393750 1.000000 0.318750
v 0.318750 1.000000 0.318750
v 0.318750 1.000000 0.393750
v 0.393750 1.000000 0.681250
v 0.681250 1.000000 0.681250
v 0.681250 1.000000 0.393750
v 0.393750 1.000000 0.393750
v 0.393750 0.587500 0.606250
v 0.606250 0.587500 0.606250
v 0.606250 0.587500 0.681250
v 0.318750 0.587500 0.606250
v 0.318750 0.587500 0.393750
v 0.393750 0.587500 0.393750
v 0.606250 0.587500 0.393750
v 0.681250 0.587500 0.393750
v 0.318750 0.587500 0.681250
v 0.681250 0.587500 0.681250
v 0.606250 0.587500 0.318750
v 0.681250 0.587500 0.318750
v 0.318750 0.587500 0.318750
v 0.393750 0.587500 0.681250
v 0.681250 0.587500 0.606250
v 0.393750 0.587500 0.318750
v 0.606250 0.462500 0.318750
v 0.393750 0.462500 0.318750
vt 0.2750 1.0000
vt 0.2250 1.0000
vt 0.2250 0.7884
vt 0.3083 1.0000
vt 0.2750 0.7884
vt 0.9167 0.7718
vt 0.8667 0.7718
vt 0.8667 0.7220
vt 1.0000 0.4523
vt 0.9500 0.4523
vt 0.9500 0.2407
vt 0.9500 0.7718
vt 0.9167 0.7220
vt 0.9167 0.9129
vt 0.8667 0.9129
vt 0.3083 0.7884
vt 0.3417 0.7884
vt 0.3417 1.0000
vt 0.0000 1.0000
vt 0.0000 0.7884
vt 0.1417 0.7884
vt 0.9167 0.9627
vt 0.8667 0.9627
vt 0.9833 0.9336
vt 0.9500 0.9336
vt 0.9500 0.7220
vt 0.9500 0.9627
vt 0.1750 0.7884
vt 0.2250 0.7884
vt 0.2250 1.0000
vt 1.0000 0.6639
vt 0.9500 0.6639
vt 0.9500 0.4523
vt 0.1417 0.7884
vt 0.1750 1.0000
vt 0.3083 0.7884
vt 1.0000 0.2407
vt 0.9500 0.7220
vt 0.3083 1.0000
vt 0.1417 1.0000
vt 0.9833 0.7220
vt 0.9500 0.9129
vt 1.0000 0.4523
vt 0.1417 1.0000
vt 0.3750 0.8382
vt 0.3750 0.8880
vt 0.3417 0.8880
vt 0.7917 0.8714
vt 0.7917 0.9212
vt 0.7583 0.9212
vt 0.3417 0.8382
vt 0.7583 0.8714
vt 0.9500 0.2407
vt 0.9000 0.0498
vt 0.9500 0.0000
vt 0.8667 0.1909
vt 0.9000 0.1909
vt 0.9000 0.2407
vt 0.8667 0.0000
vt 0.9000 0.0000
vt 0.4750 0.8382
vt 0.4417 0.8382
vt 0.4417 0.7884
vt 0.5333 0.2905
vt 0.5333 0.4315
vt 0.4833 0.4315
vt 0.3750 0.8382
vt 0.4083 0.8382
vt 0.4083 0.8880
vt 0.7583 0.9212
vt 0.7250 0.9212
vt 0.7250 0.8714
vt 0.7250 0.2905
vt 0.7250 0.4315
vt 0.6750 0.4315
vt 0.4417 0.8382
vt 0.4750 0.8382
vt 0.4750 0.8880
vt 0.6250 0.7220
vt 0.6750 0.9129
vt 0.6250 0.9627
vt 0.7083 0.7718
vt 0.6750 0.7718
vt 0.6750 0.7220
vt 0.7083 0.9627
vt 0.6750 0.9627
vt 0.8667 0.2407
vt 0.8667 0.0498
vt 0.4750 0.7884
vt 0.4833 0.2905
vt 0.3750 0.8880
vt 0.7583 0.8714
vt 0.6750 0.2905
vt 0.4417 0.8880
vt 0.7083 0.7220
vt 0.7083 0.9129
vt 0.6750 0.1909
vt 0.7250 0.1909
vt 0.7250 0.2407
vt 0.4833 0.1909
vt 0.5333 0.1909
vt 0.5333 0.2407
vt 0.4833 0.0000
vt 0.5333 0.0000
vt 0.5333 0.0498
vt 0.6750 0.0000
vt 0.7250 0.0000
vt 0.7250 0.0498
vt 0.6750 0.2407
vt 0.4833 0.2407
vt 0.4833 0.0498
vt 0.6750 0.0498
vt 0.9500 0.4813
vt 0.9000 0.2905
vt 0.9500 0.2407
vt 0.8667 0.4315
vt 0.9000 0.4315
vt 0.9000 0.4813
vt 0.8667 0.2407
vt 0.9000 0.2407
vt 0.4417 0.8382
vt 0.3917 0.8382
vt 0.3917 0.7884
vt 0.8250 0.8714
vt 0.7750 0.8714
vt 0.7750 0.8216
vt 0.4417 0.8880
vt 0.4083 0.8382
vt 0.6750 0.4813
vt 0.8583 0.8714
vt 0.8250 0.8714
vt 0.8250 0.8216
vt 0.7917 0.8714
vt 0.8250 0.8714
vt 0.8250 0.9212
vt 0.5333 0.2407
vt 0.6750 0.2407
vt 0.8583 0.9212
vt 0.8250 0.9212
vt 0.8250 0.8714
vt 0.8667 0.4813
vt 0.9167 0.6722
vt 0.8667 0.7220
vt 0.9500 0.5311
vt 0.9167 0.5311
vt 0.9167 0.4813
vt 0.9500 0.7220
vt 0.9167 0.7220
vt 0.7750 0.8714
vt 0.7250 0.8714
vt 0.7250 0.8216
vt 0.3917 0.7884
vt 0.3917 0.8382
vt 0.3417 0.8382
vt 0.8667 0.4813
vt 0.8667 0.2905
vt 0.4417 0.7884
vt 0.8250 0.8216
vt 0.4417 0.8382
vt 0.5333 0.4813
vt 0.8583 0.8216
vt 0.7917 0.9212
vt 0.8583 0.8714
vt 0.9500 0.4813
vt 0.9500 0.6722
vt 0.7750 0.8216
vt 0.3417 0.7884
vt 1.0000 0.2407
vt 0.9500 0.2407
vt 0.9500 0.0000
vt 0.2417 0.5477
vt 0.4542 0.5975
vt 0.2417 0.7884
vt 0.4833 0.4813
vt 0.7250 0.4813
vt 0.7250 0.7220
vt 0.1917 0.5975
vt 0.0500 0.5975
vt 0.0500 0.5477
vt 0.2417 0.5975
vt 0.2417 0.7386
vt 0.1917 0.7386
vt 0.0500 0.7386
vt 0.0000 0.7386
vt 0.7250 0.8216
vt 0.7250 0.5477
vt 0.8667 0.5477
vt 0.4833 0.7220
vt 0.6250 0.7220
vt 0.6250 0.9959
vt 0.7250 0.2739
vt 0.8667 0.2739
vt 0.8667 0.5477
vt 0.0000 0.2739
vt 0.2417 0.2739
vt 0.2417 0.5477
vt 0.0500 0.7884
vt 0.2417 0.0000
vt 0.2417 0.2739
vt 0.0000 0.2739
vt 0.2417 0.0000
vt 0.4833 0.0000
vt 0.4833 0.2739
vt 0.2417 0.5477
vt 0.2417 0.2739
vt 0.4833 0.2739
vt 0.8667 0.0000
vt 0.8667 0.2739
vt 0.7250 0.2739
vt 0.1917 0.5477
vt 0.2417 0.5477
vt 0.0000 0.5975
vt 0.0000 0.5477
vt 0.0000 0.7884
vt 0.2417 0.7884
vt 0.1917 0.7884
vt 1.0000 0.0000
vt 0.4542 0.5477
vt 0.4542 0.7386
vt 0.4542 0.7884
vt 0.4833 0.7220
vt 0.8667 0.8216
vt 0.4833 0.9959
vt 0.0000 0.5477
vt 0.0000 0.0000
vt 0.2417 0.2739
vt 0.4833 0.5477
vt 0.7250 0.0000
vn -1.0000 0.0000 0.0000
vn 0.0000 0.0000 -1.0000
vn 0.0000 1.0000 0.0000
vn 1.0000 0.0000 0.0000
vn 0.0000 0.0000 1.0000
vn 0.0000 -1.0000 0.0000
usemtl Default
s off
f 1/1/1 2/2/1 3/3/1
f 4/4/1 1/1/1 5/5/1
f 6/6/2 7/7/2 2/8/2
f 8/9/3 4/10/3 9/11/3
f 8/12/2 6/6/2 1/13/2
f 10/14/2 11/15/2 7/7/2
f 12/16/4 13/17/4 6/18/4
f 6/19/3 13/20/3 14/21/3
f 15/22/2 16/23/2 11/15/2
f 17/24/1 10/25/1 14/26/1
f 18/27/2 15/22/2 10/14/2
f 19/28/4 20/29/4 16/30/4
f 18/31/3 17/32/3 21/33/3
f 22/34/4 19/28/4 15/35/4
f 5/5/1 1/1/1 3/3/1
f 9/36/1 4/4/1 5/5/1
f 1/13/2 6/6/2 2/8/2
f 12/37/3 8/9/3 9/11/3
f 4/38/2 8/12/2 1/13/2
f 6/6/2 10/14/2 7/7/2
f 8/39/4 12/16/4 6/18/4
f 10/40/3 6/19/3 14/21/3
f 10/14/2 15/22/2 11/15/2
f 21/41/1 17/24/1 14/26/1
f 17/42/2 18/27/2 10/14/2
f 15/35/4 19/28/4 16/30/4
f 22/43/3 18/31/3 21/33/3
f 18/44/4 22/34/4 15/35/4
f 5/45/5 13/46/5 12/47/5
f 14/48/5 19/49/5 22/50/5
f 9/51/5 5/45/5 12/47/5
f 21/52/5 14/48/5 22/50/5
f 23/53/5 24/54/5 25/55/5
f 26/56/5 27/57/5 28/58/5
f 29/59/5 30/60/5 24/54/5
f 31/61/2 32/62/2 33/63/2
f 32/64/3 34/65/3 35/66/3
f 36/67/5 35/68/5 34/69/5
f 37/70/2 38/71/2 39/72/2
f 38/73/3 40/74/3 41/75/3
f 42/76/5 41/77/5 40/78/5
f 43/79/2 44/80/2 45/81/2
f 46/82/2 47/83/2 48/84/2
f 49/85/2 50/86/2 44/80/2
f 27/57/5 23/53/5 28/58/5
f 24/54/5 30/60/5 25/55/5
f 23/53/5 27/57/5 24/54/5
f 51/87/5 26/56/5 28/58/5
f 52/88/5 29/59/5 24/54/5
f 53/89/2 31/61/2 33/63/2
f 33/90/3 32/64/3 35/66/3
f 54/91/5 36/67/5 34/69/5
f 55/92/2 37/70/2 39/72/2
f 39/93/3 38/73/3 41/75/3
f 56/94/5 42/76/5 40/78/5
f 47/83/2 43/79/2 48/84/2
f 44/80/2 50/86/2 45/81/2
f 43/79/2 47/83/2 44/80/2
f 57/95/2 46/82/2 48/84/2
f 58/96/2 49/85/2 44/80/2
f 59/97/3 60/98/3 61/99/3
f 62/100/3 63/101/3 64/102/3
f 65/103/3 66/104/3 67/105/3
f 68/106/3 69/107/3 70/108/3
f 71/109/3 59/97/3 61/99/3
f 72/110/3 62/100/3 64/102/3
f 73/111/3 65/103/3 67/105/3
f 74/112/3 68/106/3 70/108/3
f 25/113/1 35/114/1 43/115/1
f 53/116/1 33/117/1 30/118/1
f 57/119/1 48/120/1 35/114/1
f 31/121/3 53/122/3 29/123/3
f 46/124/3 57/125/3 36/126/3
f 54/127/4 34/69/4 47/128/4
f 34/65/3 41/75/3 44/129/3
f 58/130/1 44/131/1 41/132/1
f 52/133/4 24/134/4 32/135/4
f 32/64/3 24/136/3 27/137/3
f 55/138/1 39/139/1 27/140/1
f 32/64/3 39/93/3 41/75/3
f 45/141/4 38/142/4 23/143/4
f 56/144/4 40/145/4 50/146/4
f 51/147/4 28/148/4 38/142/4
f 37/149/3 55/150/3 26/151/3
f 49/152/3 58/153/3 42/154/3
f 33/117/1 25/113/1 30/118/1
f 35/114/1 48/120/1 43/115/1
f 25/113/1 33/117/1 35/114/1
f 29/155/1 53/116/1 30/118/1
f 36/156/1 57/119/1 35/114/1
f 52/157/3 31/121/3 29/123/3
f 54/158/3 46/124/3 36/126/3
f 46/159/4 54/127/4 47/128/4
f 47/160/3 34/65/3 44/129/3
f 42/161/1 58/130/1 41/132/1
f 31/162/4 52/133/4 32/135/4
f 39/93/3 32/64/3 27/137/3
f 26/163/1 55/138/1 27/140/1
f 34/65/3 32/64/3 41/75/3
f 40/145/4 45/141/4 50/146/4
f 38/142/4 28/148/4 23/143/4
f 45/141/4 40/145/4 38/142/4
f 49/164/4 56/144/4 50/146/4
f 37/165/4 51/147/4 38/142/4
f 51/166/3 37/149/3 26/151/3
f 56/167/3 49/152/3 42/154/3
f 20/168/5 19/169/5 5/170/5
f 3/171/6 7/172/6 20/173/6
f 23/174/6 25/175/6 43/176/6
f 75/177/6 76/178/6 77/179/6
f 78/180/6 79/181/6 80/182/6
f 59/97/3 71/109/3 64/102/3
f 76/178/6 81/183/6 82/184/6
f 74/112/3 70/108/3 60/98/3
f 63/185/2 76/186/2 75/187/2
f 75/188/4 80/189/4 74/190/4
f 73/111/3 67/105/3 63/101/3
f 63/191/1 67/192/1 81/193/1
f 83/194/5 84/195/5 72/196/5
f 85/197/6 81/183/6 80/182/6
f 86/198/4 65/199/4 72/200/4
f 68/106/3 74/112/3 67/105/3
f 61/201/1 69/202/1 87/203/1
f 87/204/2 69/205/2 65/206/2
f 74/207/5 80/208/5 81/209/5
f 75/177/6 88/210/6 83/211/6
f 76/178/6 89/212/6 84/213/6
f 85/197/6 86/214/6 82/184/6
f 79/181/6 87/215/6 90/216/6
f 3/217/5 20/168/5 5/170/5
f 7/172/6 3/171/6 2/218/6
f 11/219/6 16/220/6 20/173/6
f 20/173/6 7/172/6 11/219/6
f 45/221/6 23/174/6 43/176/6
f 88/210/6 75/177/6 77/179/6
f 75/177/6 78/180/6 80/182/6
f 63/101/3 59/97/3 64/102/3
f 89/212/6 76/178/6 82/184/6
f 59/97/3 74/112/3 60/98/3
f 59/222/2 63/185/2 75/187/2
f 59/223/4 75/188/4 74/190/4
f 62/100/3 73/111/3 63/101/3
f 76/186/1 63/191/1 81/193/1
f 61/224/5 83/194/5 72/196/5
f 90/216/6 85/197/6 80/182/6
f 84/225/4 86/198/4 72/200/4
f 66/104/3 68/106/3 67/105/3
f 83/226/1 61/201/1 87/203/1
f 86/227/2 87/204/2 65/206/2
f 67/228/5 74/207/5 81/209/5
f 78/180/6 75/177/6 83/211/6
f 77/179/6 76/178/6 84/213/6
f 81/183/6 85/197/6 82/184/6
f 80/182/6 79/181/6 90/216/6
l 13 92
l 14 91
o Pump_Layer5_Cube.000
v 0.125000 0.400000 0.125000
v 0.125000 0.340000 0.125000
v 0.125000 0.340000 0.875000
v 0.875000 0.400000 0.125000
v 0.875000 0.340000 0.125000
v 0.875000 0.400000 0.875000
v 0.875000 0.340000 0.875000
v 0.125000 0.400000 0.875000
vt 0.8182 0.5000
vt 0.7576 0.5000
vt 0.7576 0.0000
vt 0.8182 0.0000
vt 0.8788 0.0000
vt 0.8788 0.5000
vt 1.0000 0.5000
vt 0.9394 0.5000
vt 0.9394 0.0000
vt 0.9394 0.5000
vt 0.8788 0.5000
vt 0.8788 0.0000
vt 0.7576 1.0000
vt 0.0000 1.0000
vt 0.0000 0.5000
vt 0.7576 0.0000
vt 0.7576 0.5000
vt 0.0000 0.5000
vt 0.8182 0.0000
vt 1.0000 0.0000
vt 0.9394 0.0000
vt 0.7576 0.5000
vt 0.0000 0.0000
vn -1.0000 0.0000 0.0000
vn 0.0000 0.0000 -1.0000
vn 1.0000 0.0000 0.0000
vn 0.0000 0.0000 1.0000
vn 0.0000 -1.0000 -0.0000
vn 0.0000 1.0000 0.0000
usemtl Default
s off
f 93/229/7 94/230/7 95/231/7
f 96/232/8 97/233/8 94/234/8
f 98/235/9 99/236/9 97/237/9
f 100/238/10 95/239/10 99/240/10
f 94/241/11 97/242/11 99/243/11
f 96/244/12 93/245/12 100/246/12
f 100/247/7 93/229/7 95/231/7
f 93/229/8 96/232/8 94/234/8
f 96/248/9 98/235/9 97/237/9
f 98/249/10 100/238/10 99/240/10
f 95/250/11 94/241/11 99/243/11
f 98/251/12 96/244/12 100/246/12
o Pump_Layer1_Cube.000
v 0.125000 0.160000 0.125000
v 0.125000 0.100000 0.125000
v 0.125000 0.100000 0.875000
v 0.875000 0.160000 0.125000
v 0.875000 0.100000 0.125000
v 0.875000 0.160000 0.875000
v 0.875000 0.100000 0.875000
v 0.125000 0.160000 0.875000
vt 0.9394 0.5000
vt 0.8788 0.5000
vt 0.8788 0.0000
vt 0.7576 0.0000
vt 0.8182 0.0000
vt 0.8182 0.5000
vt 1.0000 0.5000
vt 0.9394 0.5000
vt 0.9394 0.0000
vt 0.8788 0.5000
vt 0.8182 0.5000
vt 0.8182 0.0000
vt 0.7576 1.0000
vt 0.0000 1.0000
vt 0.0000 0.5000
vt 0.7576 0.5000
vt 0.0000 0.5000
vt 0.9394 0.0000
vt 1.0000 0.0000
vt 0.8788 0.0000
vt 0.7576 0.5000
vt 0.0000 0.0000
vn -1.0000 0.0000 0.0000
vn 0.0000 0.0000 -1.0000
vn 1.0000 0.0000 0.0000
vn 0.0000 0.0000 1.0000
vn 0.0000 -1.0000 -0.0000
vn 0.0000 1.0000 0.0000
usemtl Default
s off
f 101/252/13 102/253/13 103/254/13
f 104/255/14 105/256/14 102/257/14
f 106/258/15 107/259/15 105/260/15
f 108/261/16 103/262/16 107/263/16
f 102/264/17 105/265/17 107/266/17
f 104/255/18 101/267/18 108/268/18
f 108/269/13 101/252/13 103/254/13
f 101/267/14 104/255/14 102/257/14
f 104/270/15 106/258/15 105/260/15
f 106/271/16 108/261/16 107/263/16
f 103/272/17 102/264/17 107/266/17
f 106/273/18 104/255/18 108/268/18
o Pump_Podest_Cube.009
v 0.225000 0.462500 0.225000
v 0.225000 0.400000 0.225000
v 0.225000 0.400000 0.775000
v 0.775000 0.462500 0.225000
v 0.775000 0.400000 0.225000
v 0.775000 0.462500 0.775000
v 0.775000 0.400000 0.775000
v 0.225000 0.462500 0.775000
vt 0.7656 0.5000
vt 0.6875 0.5000
vt 0.6875 0.0000
vt 0.8437 0.0000
vt 0.9219 0.0000
vt 0.9219 0.5000
vt 1.0000 0.5000
vt 0.9219 0.5000
vt 0.8437 0.5000
vt 0.7656 0.5000
vt 0.7656 0.0000
vt 0.0000 0.5000
vt 0.0000 0.0000
vt 0.6875 1.0000
vt 0.0000 1.0000
vt 0.0000 0.5000
vt 0.7656 0.0000
vt 0.8438 0.5000
vt 1.0000 0.0000
vt 0.8437 0.0000
vt 0.6875 0.5000
vn -1.0000 0.0000 0.0000
vn 0.0000 0.0000 -1.0000
vn 1.0000 0.0000 0.0000
vn 0.0000 0.0000 1.0000
vn 0.0000 -1.0000 -0.0000
vn 0.0000 1.0000 0.0000
usemtl Default
s off
f 109/274/19 110/275/19 111/276/19
f 112/277/20 113/278/20 110/279/20
f 114/280/21 115/281/21 113/278/21
f 116/282/22 111/283/22 115/284/22
f 110/275/23 113/285/23 115/286/23
f 112/287/24 109/288/24 116/289/24
f 116/290/19 109/274/19 111/276/19
f 109/291/20 112/277/20 110/279/20
f 112/292/21 114/280/21 113/278/21
f 114/293/22 116/282/22 115/284/22
f 111/276/23 110/275/23 115/286/23
f 114/294/24 112/287/24 116/289/24
o Pump_Layer4_Cube.000
v 0.100000 0.340000 0.100000
v 0.100000 0.280000 0.100000
v 0.100000 0.280000 0.900000
v 0.900000 0.340000 0.100000
v 0.900000 0.280000 0.100000
v 0.900000 0.340000 0.900000
v 0.900000 0.280000 0.900000
v 0.100000 0.340000 0.900000
vt 0.0375 1.0000
vt 0.0000 1.0000
vt 0.0000 0.5000
vt 0.0375 0.5000
vt 0.0750 0.5000
vt 0.0750 1.0000
vt 0.1500 1.0000
vt 0.1125 1.0000
vt 0.1125 0.5000
vt 0.1125 1.0000
vt 0.0750 1.0000
vt 0.0750 0.5000
vt 1.0000 0.5000
vt 0.5000 0.5000
vt 0.5000 0.0000
vt 0.5000 0.0000
vt 0.5000 0.5000
vt 0.0000 0.5000
vt 0.0375 0.5000
vt 0.1500 0.5000
vt 0.1125 0.5000
vt 1.0000 0.0000
vt 0.0000 0.0000
vn -1.0000 -0.0000 0.0000
vn 0.0000 0.0000 -1.0000
vn 1.0000 0.0000 0.0000
vn 0.0000 0.0000 1.0000
vn 0.0000 -1.0000 -0.0000
vn 0.0000 1.0000 0.0000
usemtl Gold
s off
f 117/295/25 118/296/25 119/297/25
f 120/298/26 121/299/26 118/300/26
f 122/301/27 123/302/27 121/303/27
f 124/304/28 119/305/28 123/306/28
f 118/307/29 121/308/29 123/309/29
f 120/310/30 117/311/30 124/312/30
f 124/313/25 117/295/25 119/297/25
f 117/295/26 120/298/26 118/300/26
f 120/314/27 122/301/27 121/303/27
f 122/315/28 124/304/28 123/306/28
f 119/316/29 118/307/29 123/309/29
f 122/317/30 120/310/30 124/312/30
o FloorPlate_Cube.001
v 0.000000 0.100000 0.000000
v 0.000000 0.000000 0.000000
v 0.000000 -0.000000 1.000000
v 1.000000 0.100000 0.000000
v 1.000000 0.000000 0.000000
v 1.000000 0.100000 1.000000
v 1.000000 -0.000000 1.000000
v 0.000000 0.100000 1.000000
vt 0.7857 0.5000
vt 0.7143 0.5000
vt 0.7143 0.0000
vt 0.8571 0.0000
vt 0.9286 0.0000
vt 0.9286 0.5000
vt 1.0000 0.5000
vt 0.9286 0.5000
vt 0.8571 0.5000
vt 0.7857 0.5000
vt 0.7857 0.0000
vt 0.7143 1.0000
vt 0.0000 1.0000
vt 0.0000 0.5000
vt 0.7143 0.0000
vt 0.7143 0.5000
vt 0.0000 0.5000
vt 0.7857 0.0000
vt 0.8571 0.5000
vt 1.0000 0.0000
vt 0.8571 0.0000
vt 0.7143 0.5000
vt 0.0000 0.0000
vn -1.0000 0.0000 0.0000
vn 0.0000 0.0000 -1.0000
vn 1.0000 0.0000 0.0000
vn 0.0000 0.0000 1.0000
vn 0.0000 -1.0000 -0.0000
vn 0.0000 1.0000 0.0000
usemtl FloorPlate
s off
f 125/318/31 126/319/31 127/320/31
f 128/321/32 129/322/32 126/323/32
f 130/324/33 131/325/33 129/322/33
f 132/326/34 127/327/34 131/328/34
f 126/329/35 129/330/35 131/331/35
f 128/332/36 125/333/36 132/334/36
f 132/335/31 125/318/31 127/320/31
f 125/336/32 128/321/32 126/323/32
f 128/337/33 130/324/33 129/322/33
f 130/338/34 132/326/34 131/328/34
f 127/339/35 126/329/35 131/331/35
f 130/340/36 128/332/36 132/334/36
o Pump_Layer2_Cube.000
v 0.100000 0.220000 0.100000
v 0.100000 0.160000 0.100000
v 0.100000 0.160000 0.900000
v 0.900000 0.220000 0.100000
v 0.900000 0.160000 0.100000
v 0.900000 0.220000 0.900000
v 0.900000 0.160000 0.900000
v 0.100000 0.220000 0.900000
vt 0.1125 1.0000
vt 0.0750 1.0000
vt 0.0750 0.5000
vt 0.0000 0.5000
vt 0.0375 0.5000
vt 0.0375 1.0000
vt 0.1500 1.0000
vt 0.1125 1.0000
vt 0.1125 0.5000
vt 0.0750 1.0000
vt 0.0375 1.0000
vt 0.0375 0.5000
vt 0.5000 0.5000
vt 0.0000 0.5000
vt 0.0000 0.0000
vt 1.0000 0.0000
vt 1.0000 0.5000
vt 0.5000 0.5000
vt 0.1125 0.5000
vt 0.0000 1.0000
vt 0.1500 0.5000
vt 0.0750 0.5000
vt 0.5000 0.0000
vt 0.5000 0.0000
vn -1.0000 0.0000 0.0000
vn 0.0000 0.0000 -1.0000
vn 1.0000 0.0000 0.0000
vn 0.0000 -0.0000 1.0000
vn 0.0000 -1.0000 -0.0000
vn 0.0000 1.0000 0.0000
usemtl Gold
s off
f 133/341/37 134/342/37 135/343/37
f 136/344/38 137/345/38 134/346/38
f 138/347/39 139/348/39 137/349/39
f 140/350/40 135/351/40 139/352/40
f 134/353/41 137/354/41 139/355/41
f 136/356/42 133/357/42 140/358/42
f 140/359/37 133/341/37 135/343/37
f 133/360/38 136/344/38 134/346/38
f 136/361/39 138/347/39 137/349/39
f 138/362/40 140/350/40 139/352/40
f 135/363/41 134/353/41 139/355/41
f 138/364/42 136/356/42 140/358/42
o Pump_Layer3_Cube.000
v 0.125000 0.280000 0.125000
v 0.125000 0.220000 0.125000
v 0.125000 0.220000 0.875000
v 0.875000 0.280000 0.125000
v 0.875000 0.220000 0.125000
v 0.875000 0.280000 0.875000
v 0.875000 0.220000 0.875000
v 0.125000 0.280000 0.875000
vt 0.8788 0.5000
vt 0.8182 0.5000
vt 0.8182 0.0000
vt 1.0000 0.5000
vt 0.9394 0.5000
vt 0.9394 0.0000
vt 0.9394 0.5000
vt 0.8788 0.5000
vt 0.8788 0.0000
vt 0.8182 0.5000
vt 0.7576 0.5000
vt 0.7576 0.0000
vt 0.7576 1.0000
vt 0.0000 1.0000
vt 0.0000 0.5000
vt 0.7576 0.0000
vt 0.7576 0.5000
vt 0.0000 0.5000
vt 0.8788 0.0000
vt 1.0000 0.0000
vt 0.9394 0.0000
vt 0.8182 0.0000
vt 0.0000 0.0000
vn -1.0000 0.0000 0.0000
vn 0.0000 0.0000 -1.0000
vn 1.0000 0.0000 0.0000
vn 0.0000 0.0000 1.0000
vn 0.0000 -1.0000 -0.0000
vn 0.0000 1.0000 0.0000
usemtl Default
s off
f 141/365/43 142/366/43 143/367/43
f 144/368/44 145/369/44 142/370/44
f 146/371/45 147/372/45 145/373/45
f 148/374/46 143/375/46 147/376/46
f 142/377/47 145/378/47 147/379/47
f 144/380/48 141/381/48 148/382/48
f 148/383/43 141/365/43 143/367/43
f 141/384/44 144/368/44 142/370/44
f 144/385/45 146/371/45 145/373/45
f 146/386/46 148/374/46 147/376/46
f 143/375/47 142/377/47 147/379/47
f 146/387/48 144/380/48 148/382/48
o ConduitCloser_Cube.006
v 0.606250 0.537500 0.681250
v 0.606250 0.537500 0.606250
v 0.606250 0.587500 0.606250
v 0.393750 0.537500 0.606250
v 0.393750 0.537500 0.681250
v 0.393750 0.587500 0.681250
v 0.606250 0.587500 0.681250
v 0.393750 0.587500 0.606250
v 0.318750 0.537500 0.606250
v 0.393750 0.537500 0.606250
v 0.393750 0.587500 0.606250
v 0.393750 0.537500 0.393750
v 0.318750 0.537500 0.393750
v 0.318750 0.587500 0.393750
v 0.318750 0.587500 0.606250
v 0.393750 0.587500 0.393750
v 0.681250 0.537500 0.393750
v 0.606250 0.537500 0.393750
v 0.606250 0.587500 0.393750
v 0.606250 0.537500 0.606250
v 0.681250 0.537500 0.606250
v 0.681250 0.587500 0.606250
v 0.681250 0.587500 0.393750
v 0.606250 0.587500 0.606250
vt 1.0000 0.8286
vt 1.0000 1.0000
vt 0.8889 1.0000
vt 0.7778 1.0000
vt 0.7778 0.8286
vt 0.8889 0.8286
vt 0.8889 0.8286
vt 0.8889 1.0000
vt 0.0000 0.0000
vt 0.1667 0.0000
vt 0.1667 0.4857
vt 0.6667 0.4857
vt 0.6667 0.9714
vt 0.5556 0.9714
vt 0.6667 0.0000
vt 0.5000 0.4857
vt 0.7778 0.4857
vt 0.7778 0.9714
vt 0.6667 0.9714
vt 0.0000 0.4857
vt 0.5556 0.4857
vt 0.5000 0.0000
vt 0.6667 0.4857
vt 0.8889 0.6571
vt 0.8889 0.8286
vt 0.7778 0.8286
vt 0.7778 0.6571
vt 0.7778 0.4857
vt 0.8889 0.4857
vt 0.7778 0.6571
vt 0.8889 0.6571
vt 0.3333 0.0000
vt 0.5000 0.0000
vt 0.5000 0.4857
vt 0.2222 0.9714
vt 0.2222 0.4857
vt 0.3333 0.4857
vt 0.3333 0.0000
vt 0.3333 0.4857
vt 0.1667 0.4857
vt 0.9444 0.0000
vt 0.9444 0.4857
vt 0.8333 0.4857
vt 0.3333 0.4857
vt 0.3333 0.9714
vt 0.1667 0.0000
vt 0.8333 0.0000
vt 0.8889 0.6571
vt 0.8889 0.4857
vt 1.0000 0.4857
vt 1.0000 0.6571
vt 1.0000 0.8286
vt 0.8889 0.8286
vt 1.0000 0.6571
vt 0.8889 0.6571
vt 0.1667 0.9714
vt 0.0000 0.9714
vt 0.0000 0.4857
vt 0.4444 0.4857
vt 0.4444 0.9714
vt 0.3333 0.9714
vt 0.6667 0.4857
vt 0.6667 0.0000
vt 0.8333 0.0000
vt 0.4444 0.9714
vt 0.4444 0.4857
vt 0.5556 0.4857
vt 0.1667 0.4857
vt 0.3333 0.4857
vt 0.8333 0.4857
vt 0.5556 0.9714
vn 1.0000 -0.0000 0.0000
vn -1.0000 0.0000 0.0000
vn 0.0000 -1.0000 0.0000
vn 0.0000 0.0000 -1.0000
vn 0.0000 1.0000 0.0000
vn 0.0000 -0.0000 1.0000
usemtl Default
s off
f 149/388/49 150/389/49 151/390/49
f 152/391/50 153/392/50 154/393/50
f 155/394/49 149/388/49 151/390/49
f 156/395/50 152/391/50 154/393/50
f 150/396/51 149/397/51 153/398/51
f 156/399/52 151/400/52 150/401/52
f 151/402/53 156/399/53 154/403/53
f 155/404/54 154/405/54 153/406/54
f 152/407/51 150/396/51 153/398/51
f 152/408/52 156/399/52 150/401/52
f 155/409/53 151/402/53 154/403/53
f 149/410/54 155/404/54 153/406/54
f 157/411/54 158/412/54 159/413/54
f 160/414/52 161/415/52 162/416/52
f 163/417/54 157/411/54 159/413/54
f 164/418/52 160/414/52 162/416/52
f 158/419/51 157/420/51 161/421/51
f 164/422/49 159/423/49 158/424/49
f 159/425/53 164/426/53 162/427/53
f 163/428/50 162/429/50 161/430/50
f 160/431/51 158/419/51 161/421/51
f 160/432/49 164/422/49 158/424/49
f 163/433/53 159/425/53 162/427/53
f 157/434/50 163/428/50 161/430/50
f 165/435/52 166/436/52 167/437/52
f 168/438/54 169/439/54 170/440/54
f 171/441/52 165/435/52 167/437/52
f 172/442/54 168/438/54 170/440/54
f 166/443/51 165/444/51 169/445/51
f 172/446/50 167/447/50 166/448/50
f 167/449/53 172/450/53 170/451/53
f 171/452/49 170/453/49 169/454/49
f 168/455/51 166/443/51 169/445/51
f 168/456/50 172/446/50 166/448/50
f 171/457/53 167/449/53 170/451/53
f 165/458/49 171/452/49 169/454/49
