# Blender v2.74 (sub 0) OBJ File: ''
# www.blender.org
mtllib Guide.mtl
o Bottom_RightSide_Cube.002
v 0.500000 -0.100000 1.000593
v 0.010000 -0.090000 1.000593
v -0.000000 -0.100000 1.000593
v 0.500000 -0.090000 0.310593
v 0.500000 -0.090000 0.990593
v 0.500000 -0.100000 0.300593
v -0.000000 0.000000 0.300593
v 0.000000 0.000000 1.000593
v 0.010000 -0.000000 0.310593
v 0.490000 -0.000000 0.310593
v 0.010000 -0.000000 0.990593
v 0.500000 -0.090000 1.000593
v 0.500000 -0.090000 0.990593
v 0.010000 -0.090000 0.990593
v 0.010000 -0.000000 0.300593
v 0.010000 -0.090000 0.300593
v -0.000000 -0.090000 0.300593
v 0.490000 -0.090000 0.310593
v 0.490000 -0.090000 0.990593
v 0.490000 -0.000000 0.990593
v 0.010000 -0.090000 0.310593
v 0.500000 -0.090000 0.310593
v -0.000000 -0.100000 0.300593
v -0.000000 -0.090000 1.000593
v 0.010000 -0.000000 0.310593
v 0.500000 -0.090000 0.300593
v 0.010000 -0.000000 1.000593
vt 0.500000 1.000000
vt 0.491667 0.584746
vt 0.500000 0.576271
vt 0.983333 0.008475
vt 0.983333 0.584746
vt 0.975000 0.593220
vt 0.416666 0.000000
vt 0.416667 0.593220
vt 0.000000 0.593220
vt 0.983333 0.593220
vt 0.983333 0.000000
vt 0.991667 0.584746
vt 0.816666 0.000000
vt 0.816666 0.576271
vt 0.733333 0.576271
vt 0.741667 0.576271
vt 0.741667 0.991525
vt 0.500000 0.991525
vt 0.575000 0.991525
vt 0.575000 1.000000
vt 0.991667 0.000000
vt 1.000000 0.000000
vt 1.000000 0.576271
vt 0.975000 0.576271
vt 0.900000 0.576271
vt 0.900000 0.000000
vt 0.750000 0.991525
vt 0.583333 1.000000
vt 0.583333 0.576271
vt 0.416667 0.576271
vt 0.491667 0.576271
vt 0.583333 0.983051
vt 0.658333 0.576271
vt 0.016667 0.669491
vt 0.008333 0.669491
vt 0.008333 0.593220
vt 0.658333 0.983051
vt 0.891666 0.000000
vt 0.891666 0.593220
vt 0.491667 1.000000
vt 0.975000 0.000000
vt 0.000000 0.000000
vt 0.991667 0.593220
vt 0.733333 0.991525
vt 0.991667 0.576271
vt 0.750000 0.576271
vt 0.575000 0.576271
vt 0.416667 0.584746
vt 0.016667 0.593220
vt 0.733333 0.983051
vt 0.000000 0.669491
vt 0.816666 0.593220
vt 0.900000 0.593220
vn 0.000000 0.000000 1.000000
vn 1.000000 -0.000000 -0.000000
vn -0.000000 -1.000000 0.000000
vn 0.000000 1.000000 -0.000000
vn 0.000000 0.000000 -1.000000
vn -1.000000 0.000000 0.000000
usemtl Bottom
s 1
f 1/1/1 2/2/1 3/3/1
f 4/4/2 5/5/2 1/6/2
f 6/7/3 1/8/3 3/9/3
f 7/10/4 8/11/4 9/12/4
f 10/7/4 9/13/4 11/14/4
f 12/15/4 13/16/4 14/17/4
f 15/18/5 16/19/5 17/20/5
f 4/21/4 18/22/4 19/23/4
f 20/24/2 19/25/2 18/26/2
f 16/27/4 21/17/4 22/16/4
f 23/28/5 16/19/5 6/29/5
f 8/30/1 24/31/1 2/2/1
f 20/32/1 11/29/1 14/33/1
f 2/34/2 14/35/2 11/36/2
f 9/37/5 10/33/5 18/15/5
f 15/9/2 25/36/2 21/35/2
f 7/13/6 17/38/6 24/39/6
f 2/2/1 1/1/1 12/40/1
f 2/2/1 24/31/1 3/3/1
f 6/41/2 26/11/2 4/4/2
f 4/4/2 1/6/2 6/41/2
f 1/6/2 5/5/2 12/10/2
f 23/42/3 6/7/3 3/9/3
f 9/12/4 15/43/4 7/10/4
f 8/11/4 27/21/4 9/12/4
f 20/30/4 10/7/4 11/14/4
f 2/44/4 12/15/4 14/17/4
f 7/1/5 15/18/5 17/20/5
f 5/45/4 4/21/4 19/23/4
f 10/41/2 20/24/2 18/26/2
f 26/46/4 16/27/4 22/16/4
f 16/19/5 23/28/5 17/20/5
f 16/19/5 26/47/5 6/29/5
f 27/48/1 8/30/1 2/2/1
f 19/37/1 20/32/1 14/33/1
f 27/49/2 2/34/2 11/36/2
f 21/50/5 9/37/5 18/15/5
f 16/51/2 15/9/2 21/35/2
f 24/39/6 8/52/6 7/13/6
f 23/26/6 3/53/6 24/39/6
f 24/39/6 17/38/6 23/26/6
o Top_RightSide_Cube.000
v 0.500000 0.100000 0.300407
v 0.010000 0.090000 0.300407
v -0.000000 0.100000 0.300407
v 0.500000 0.090000 0.990407
v 0.500000 0.090000 0.310407
v 0.500000 0.100000 1.000407
v -0.000000 0.000000 1.000407
v -0.000000 -0.000000 0.300407
v 0.010000 0.000000 0.990407
v 0.490000 0.000000 0.990407
v 0.010000 -0.000000 0.310407
v 0.500000 0.090000 0.300407
v 0.500000 0.090000 0.310407
v 0.010000 0.090000 0.310407
v 0.010000 0.000000 1.000407
v 0.010000 0.090000 1.000407
v -0.000000 0.090000 1.000407
v 0.490000 0.090000 0.990407
v 0.490000 0.090000 0.310407
v 0.490000 0.000000 0.310407
v 0.010000 0.090000 0.990407
v 0.500000 0.090000 0.990407
v -0.000000 0.100000 1.000407
v -0.000000 0.090000 0.300407
v 0.010000 0.000000 0.990407
v 0.500000 0.090000 1.000407
v 0.010000 -0.000000 0.300407
vt 0.500000 1.000000
vt 0.491667 0.584746
vt 0.500000 0.576271
vt 0.983333 0.008475
vt 0.983333 0.584746
vt 0.975000 0.593220
vt 0.416666 0.000000
vt 0.416667 0.593220
vt 0.000000 0.593220
vt 0.983333 0.593220
vt 0.983333 0.000000
vt 0.991667 0.584746
vt 0.816666 0.000000
vt 0.816666 0.576271
vt 0.733333 0.576271
vt 0.741667 0.576271
vt 0.741667 0.991525
vt 0.500000 0.991525
vt 0.575000 0.991525
vt 0.575000 1.000000
vt 0.991667 0.000000
vt 1.000000 0.000000
vt 1.000000 0.576271
vt 0.975000 0.576271
vt 0.900000 0.576271
vt 0.900000 0.000000
vt 0.750000 0.991525
vt 0.583333 1.000000
vt 0.583333 0.576271
vt 0.416667 0.576271
vt 0.491667 0.576271
vt 0.583333 0.983051
vt 0.658333 0.576271
vt 0.016667 0.669491
vt 0.008333 0.669491
vt 0.008333 0.593220
vt 0.658333 0.983051
vt 0.891666 0.000000
vt 0.891666 0.593220
vt 0.491667 1.000000
vt 0.975000 0.000000
vt 0.000000 0.000000
vt 0.991667 0.593220
vt 0.733333 0.991525
vt 0.991667 0.576271
vt 0.750000 0.576271
vt 0.575000 0.576271
vt 0.416667 0.584746
vt 0.016667 0.593220
vt 0.733333 0.983051
vt 0.000000 0.669491
vt 0.816666 0.593220
vt 0.900000 0.593220
vn 0.000000 0.000000 -1.000000
vn 1.000000 0.000000 -0.000000
vn -0.000000 1.000000 -0.000000
vn 0.000000 -1.000000 0.000000
vn 0.000000 0.000000 1.000000
vn -1.000000 -0.000000 0.000000
usemtl Top
s 1
f 28/54/7 29/55/7 30/56/7
f 31/57/8 32/58/8 28/59/8
f 33/60/9 28/61/9 30/62/9
f 34/63/10 35/64/10 36/65/10
f 37/60/10 36/66/10 38/67/10
f 39/68/10 40/69/10 41/70/10
f 42/71/11 43/72/11 44/73/11
f 31/74/10 45/75/10 46/76/10
f 47/77/8 46/78/8 45/79/8
f 43/80/10 48/70/10 49/69/10
f 50/81/11 43/72/11 33/82/11
f 35/83/7 51/84/7 29/55/7
f 47/85/7 38/82/7 41/86/7
f 29/87/8 41/88/8 38/89/8
f 36/90/11 37/86/11 45/68/11
f 42/62/8 52/89/8 48/88/8
f 34/66/12 44/91/12 51/92/12
f 29/55/7 28/54/7 39/93/7
f 29/55/7 51/84/7 30/56/7
f 33/94/8 53/64/8 31/57/8
f 31/57/8 28/59/8 33/94/8
f 28/59/8 32/58/8 39/63/8
f 50/95/9 33/60/9 30/62/9
f 36/65/10 42/96/10 34/63/10
f 35/64/10 54/74/10 36/65/10
f 47/83/10 37/60/10 38/67/10
f 29/97/10 39/68/10 41/70/10
f 34/54/11 42/71/11 44/73/11
f 32/98/10 31/74/10 46/76/10
f 37/94/8 47/77/8 45/79/8
f 53/99/10 43/80/10 49/69/10
f 43/72/11 50/81/11 44/73/11
f 43/72/11 53/100/11 33/82/11
f 54/101/7 35/83/7 29/55/7
f 46/90/7 47/85/7 41/86/7
f 54/102/8 29/87/8 38/89/8
f 48/103/11 36/90/11 45/68/11
f 43/104/8 42/62/8 48/88/8
f 51/92/12 35/105/12 34/66/12
f 50/79/12 30/106/12 51/92/12
f 51/92/12 44/91/12 50/79/12
